<?xml version="1.0" ?><svg enable-background="new 0 0 224 224" id="linkedin" version="1.1" viewBox="0 0 224 224" xml:space="preserve" xmlns="http://www.w3.org/2000/svg" xmlns:xlink="http://www.w3.org/1999/xlink"><g><path d="M20,8h-4V4c0-2.209-1.7891-4-4-4S8,1.791,8,4v4H4c-2.2109,0-4,1.791-4,4s1.7891,4,4,4h4v4   c0,2.209,1.7891,4,4,4s4-1.791,4-4v-4h4c2.2109,0,4-1.791,4-4S22.2109,8,20,8z" fill="#FAE6F5"/><path d="M60,8h-4V4c0-2.209-1.7891-4-4-4s-4,1.791-4,4v4h-4c-2.2109,0-4,1.791-4,4s1.7891,4,4,4h4v4   c0,2.209,1.7891,4,4,4s4-1.791,4-4v-4h4c2.2109,0,4-1.791,4-4S62.2109,8,60,8z" fill="#FAE6F5"/><path d="M100,8h-4V4c0-2.209-1.7891-4-4-4s-4,1.791-4,4v4h-4c-2.2109,0-4,1.791-4,4s1.7891,4,4,4h4v4   c0,2.209,1.7891,4,4,4s4-1.791,4-4v-4h4c2.2109,0,4-1.791,4-4S102.2109,8,100,8z" fill="#FAE6F5"/><path d="M140,8h-4V4c0-2.209-1.7891-4-4-4s-4,1.791-4,4v4h-4c-2.2109,0-4,1.791-4,4s1.7891,4,4,4h4v4   c0,2.209,1.7891,4,4,4s4-1.791,4-4v-4h4c2.2109,0,4-1.791,4-4S142.2109,8,140,8z" fill="#FAE6F5"/><path d="M180,8h-4V4c0-2.209-1.7891-4-4-4s-4,1.791-4,4v4h-4c-2.2109,0-4,1.791-4,4s1.7891,4,4,4h4v4   c0,2.209,1.7891,4,4,4s4-1.791,4-4v-4h4c2.2109,0,4-1.791,4-4S182.2109,8,180,8z" fill="#FAE6F5"/><path d="M204,16h4v4c0,2.209,1.7891,4,4,4s4-1.791,4-4v-4h4c2.2109,0,4-1.791,4-4s-1.7891-4-4-4h-4V4   c0-2.209-1.7891-4-4-4s-4,1.791-4,4v4h-4c-2.2109,0-4,1.791-4,4S201.7891,16,204,16z" fill="#FAE6F5"/><path d="M20,48h-4v-4c0-2.209-1.7891-4-4-4s-4,1.791-4,4v4H4c-2.2109,0-4,1.791-4,4s1.7891,4,4,4h4v4   c0,2.209,1.7891,4,4,4s4-1.791,4-4v-4h4c2.2109,0,4-1.791,4-4S22.2109,48,20,48z" fill="#FAE6F5"/><path d="M60,48h-4v-4c0-2.209-1.7891-4-4-4s-4,1.791-4,4v4h-4c-2.2109,0-4,1.791-4,4s1.7891,4,4,4h4v4   c0,2.209,1.7891,4,4,4s4-1.791,4-4v-4h4c2.2109,0,4-1.791,4-4S62.2109,48,60,48z" fill="#FAE6F5"/><path d="M100,48h-4v-4c0-2.209-1.7891-4-4-4s-4,1.791-4,4v4h-4c-2.2109,0-4,1.791-4,4s1.7891,4,4,4h4v4   c0,2.209,1.7891,4,4,4s4-1.791,4-4v-4h4c2.2109,0,4-1.791,4-4S102.2109,48,100,48z" fill="#FAE6F5"/><path d="M140,48h-4v-4c0-2.209-1.7891-4-4-4s-4,1.791-4,4v4h-4c-2.2109,0-4,1.791-4,4s1.7891,4,4,4h4v4   c0,2.209,1.7891,4,4,4s4-1.791,4-4v-4h4c2.2109,0,4-1.791,4-4S142.2109,48,140,48z" fill="#FAE6F5"/><path d="M180,48h-4v-4c0-2.209-1.7891-4-4-4s-4,1.791-4,4v4h-4c-2.2109,0-4,1.791-4,4s1.7891,4,4,4h4v4   c0,2.209,1.7891,4,4,4s4-1.791,4-4v-4h4c2.2109,0,4-1.791,4-4S182.2109,48,180,48z" fill="#FAE6F5"/><path d="M220,48h-4v-4c0-2.209-1.7891-4-4-4s-4,1.791-4,4v4h-4c-2.2109,0-4,1.791-4,4s1.7891,4,4,4h4v4   c0,2.209,1.7891,4,4,4s4-1.791,4-4v-4h4c2.2109,0,4-1.791,4-4S222.2109,48,220,48z" fill="#FAE6F5"/><path d="M20,88h-4v-4c0-2.209-1.7891-4-4-4s-4,1.791-4,4v4H4c-2.2109,0-4,1.791-4,4s1.7891,4,4,4h4v4   c0,2.209,1.7891,4,4,4s4-1.791,4-4v-4h4c2.2109,0,4-1.791,4-4S22.2109,88,20,88z" fill="#FAE6F5"/><path d="M60,88h-4v-4c0-2.209-1.7891-4-4-4s-4,1.791-4,4v4h-4c-2.2109,0-4,1.791-4,4s1.7891,4,4,4h4v4   c0,2.209,1.7891,4,4,4s4-1.791,4-4v-4h4c2.2109,0,4-1.791,4-4S62.2109,88,60,88z" fill="#FAE6F5"/><path d="M100,88h-4v-4c0-2.209-1.7891-4-4-4s-4,1.791-4,4v4h-4c-2.2109,0-4,1.791-4,4s1.7891,4,4,4h4v4   c0,2.209,1.7891,4,4,4s4-1.791,4-4v-4h4c2.2109,0,4-1.791,4-4S102.2109,88,100,88z" fill="#FAE6F5"/><path d="M140,88h-4v-4c0-2.209-1.7891-4-4-4s-4,1.791-4,4v4h-4c-2.2109,0-4,1.791-4,4s1.7891,4,4,4h4v4   c0,2.209,1.7891,4,4,4s4-1.791,4-4v-4h4c2.2109,0,4-1.791,4-4S142.2109,88,140,88z" fill="#FAE6F5"/><path d="M180,88h-4v-4c0-2.209-1.7891-4-4-4s-4,1.791-4,4v4h-4c-2.2109,0-4,1.791-4,4s1.7891,4,4,4h4v4   c0,2.209,1.7891,4,4,4s4-1.791,4-4v-4h4c2.2109,0,4-1.791,4-4S182.2109,88,180,88z" fill="#FAE6F5"/><path d="M220,88h-4v-4c0-2.209-1.7891-4-4-4s-4,1.791-4,4v4h-4c-2.2109,0-4,1.791-4,4s1.7891,4,4,4h4v4   c0,2.209,1.7891,4,4,4s4-1.791,4-4v-4h4c2.2109,0,4-1.791,4-4S222.2109,88,220,88z" fill="#FAE6F5"/><path d="M20,128h-4v-4c0-2.209-1.7891-4-4-4s-4,1.791-4,4v4H4c-2.2109,0-4,1.791-4,4s1.7891,4,4,4h4v4   c0,2.209,1.7891,4,4,4s4-1.791,4-4v-4h4c2.2109,0,4-1.791,4-4S22.2109,128,20,128z" fill="#FAE6F5"/><path d="M60,128h-4v-4c0-2.209-1.7891-4-4-4s-4,1.791-4,4v4h-4c-2.2109,0-4,1.791-4,4s1.7891,4,4,4h4v4   c0,2.209,1.7891,4,4,4s4-1.791,4-4v-4h4c2.2109,0,4-1.791,4-4S62.2109,128,60,128z" fill="#FAE6F5"/><path d="M100,128h-4v-4c0-2.209-1.7891-4-4-4s-4,1.791-4,4v4h-4c-2.2109,0-4,1.791-4,4s1.7891,4,4,4h4v4   c0,2.209,1.7891,4,4,4s4-1.791,4-4v-4h4c2.2109,0,4-1.791,4-4S102.2109,128,100,128z" fill="#FAE6F5"/><path d="M140,128h-4v-4c0-2.209-1.7891-4-4-4s-4,1.791-4,4v4h-4c-2.2109,0-4,1.791-4,4s1.7891,4,4,4h4v4   c0,2.209,1.7891,4,4,4s4-1.791,4-4v-4h4c2.2109,0,4-1.791,4-4S142.2109,128,140,128z" fill="#FAE6F5"/><path d="M180,128h-4v-4c0-2.209-1.7891-4-4-4s-4,1.791-4,4v4h-4c-2.2109,0-4,1.791-4,4s1.7891,4,4,4h4v4   c0,2.209,1.7891,4,4,4s4-1.791,4-4v-4h4c2.2109,0,4-1.791,4-4S182.2109,128,180,128z" fill="#FAE6F5"/><path d="M220,128h-4v-4c0-2.209-1.7891-4-4-4s-4,1.791-4,4v4h-4c-2.2109,0-4,1.791-4,4s1.7891,4,4,4h4v4   c0,2.209,1.7891,4,4,4s4-1.791,4-4v-4h4c2.2109,0,4-1.791,4-4S222.2109,128,220,128z" fill="#FAE6F5"/><path d="M20,168h-4v-4c0-2.209-1.7891-4-4-4s-4,1.791-4,4v4H4c-2.2109,0-4,1.791-4,4s1.7891,4,4,4h4v4   c0,2.209,1.7891,4,4,4s4-1.791,4-4v-4h4c2.2109,0,4-1.791,4-4S22.2109,168,20,168z" fill="#FAE6F5"/><path d="M60,168h-4v-4c0-2.209-1.7891-4-4-4s-4,1.791-4,4v4h-4c-2.2109,0-4,1.791-4,4s1.7891,4,4,4h4v4   c0,2.209,1.7891,4,4,4s4-1.791,4-4v-4h4c2.2109,0,4-1.791,4-4S62.2109,168,60,168z" fill="#FAE6F5"/><path d="M100,168h-4v-4c0-2.209-1.7891-4-4-4s-4,1.791-4,4v4h-4c-2.2109,0-4,1.791-4,4s1.7891,4,4,4h4v4   c0,2.209,1.7891,4,4,4s4-1.791,4-4v-4h4c2.2109,0,4-1.791,4-4S102.2109,168,100,168z" fill="#FAE6F5"/><path d="M140,168h-4v-4c0-2.209-1.7891-4-4-4s-4,1.791-4,4v4h-4c-2.2109,0-4,1.791-4,4s1.7891,4,4,4h4v4   c0,2.209,1.7891,4,4,4s4-1.791,4-4v-4h4c2.2109,0,4-1.791,4-4S142.2109,168,140,168z" fill="#FAE6F5"/><path d="M180,168h-4v-4c0-2.209-1.7891-4-4-4s-4,1.791-4,4v4h-4c-2.2109,0-4,1.791-4,4s1.7891,4,4,4h4v4   c0,2.209,1.7891,4,4,4s4-1.791,4-4v-4h4c2.2109,0,4-1.791,4-4S182.2109,168,180,168z" fill="#FAE6F5"/><path d="M220,168h-4v-4c0-2.209-1.7891-4-4-4s-4,1.791-4,4v4h-4c-2.2109,0-4,1.791-4,4s1.7891,4,4,4h4v4   c0,2.209,1.7891,4,4,4s4-1.791,4-4v-4h4c2.2109,0,4-1.791,4-4S222.2109,168,220,168z" fill="#FAE6F5"/><path d="M20,208h-4v-4c0-2.209-1.7891-4-4-4s-4,1.791-4,4v4H4c-2.2109,0-4,1.791-4,4s1.7891,4,4,4h4v4   c0,2.209,1.7891,4,4,4s4-1.791,4-4v-4h4c2.2109,0,4-1.791,4-4S22.2109,208,20,208z" fill="#FAE6F5"/><path d="M60,208h-4v-4c0-2.209-1.7891-4-4-4s-4,1.791-4,4v4h-4c-2.2109,0-4,1.791-4,4s1.7891,4,4,4h4v4   c0,2.209,1.7891,4,4,4s4-1.791,4-4v-4h4c2.2109,0,4-1.791,4-4S62.2109,208,60,208z" fill="#FAE6F5"/><path d="M100,208h-4v-4c0-2.209-1.7891-4-4-4s-4,1.791-4,4v4h-4c-2.2109,0-4,1.791-4,4s1.7891,4,4,4h4v4   c0,2.209,1.7891,4,4,4s4-1.791,4-4v-4h4c2.2109,0,4-1.791,4-4S102.2109,208,100,208z" fill="#FAE6F5"/><path d="M140,208h-4v-4c0-2.209-1.7891-4-4-4s-4,1.791-4,4v4h-4c-2.2109,0-4,1.791-4,4s1.7891,4,4,4h4v4   c0,2.209,1.7891,4,4,4s4-1.791,4-4v-4h4c2.2109,0,4-1.791,4-4S142.2109,208,140,208z" fill="#FAE6F5"/><path d="M180,208h-4v-4c0-2.209-1.7891-4-4-4s-4,1.791-4,4v4h-4c-2.2109,0-4,1.791-4,4s1.7891,4,4,4h4v4   c0,2.209,1.7891,4,4,4s4-1.791,4-4v-4h4c2.2109,0,4-1.791,4-4S182.2109,208,180,208z" fill="#FAE6F5"/><path d="M220,208h-4v-4c0-2.209-1.7891-4-4-4s-4,1.791-4,4v4h-4c-2.2109,0-4,1.791-4,4s1.7891,4,4,4h4v4   c0,2.209,1.7891,4,4,4s4-1.791,4-4v-4h4c2.2109,0,4-1.791,4-4S222.2109,208,220,208z" fill="#FAE6F5"/></g><g><path d="M43.5545,10.6035c-12.4961,0-21.5664,8.6172-21.5664,20.4883c0,11.8633,8.8906,20.4746,21.1367,20.4746   c6.3516,0,11.8242-2.0586,15.8281-5.9551c3.8398-3.7383,5.957-8.8945,5.9531-14.6133   C64.6249,18.9902,55.8436,10.6035,43.5545,10.6035z" fill="#643458"/><path d="M53.3749,39.877c-2.4805,2.4141-6.0273,3.6895-10.25,3.6895c-7.7344,0-13.1367-5.1289-13.1367-12.4746   c0-7.4688,5.4531-12.4883,13.5664-12.4883c7.9336,0,13.1719,4.9395,13.3516,12.4902C56.9061,34.541,55.6522,37.6602,53.3749,39.877   z" fill="#ED5175"/><rect fill="#643458" height="132.1777" width="35.9531" x="25.8241" y="58.3242"/><rect fill="#ED5175" height="116.1777" width="19.9531" x="33.8241" y="66.3242"/><path d="M156.5819,58.3242c-16.6719,0-26.8789,5.7539-32.793,11.166l-1.125-11.166H81.9881V190.502h39.8359   v-69.4707c0-2.9922,1.2109-9.2051,1.9727-10.8457c4.8125-10.3652,11.3047-10.3652,21.1367-10.3652   c11.3242,0,20.8906,10.6191,20.8906,23.1875v67.4941h40v-74.6816C205.8241,76.3164,180.2967,58.3242,156.5819,58.3242z" fill="#643458"/><path d="M197.8241,182.502h-24v-59.4941c0-16.9062-13.2305-31.1875-28.8906-31.1875   c-10.0469,0-21.4336,0-28.3945,14.998c-1.4375,3.0996-2.7148,10.5293-2.7148,14.2129v61.4707H89.9881V66.3242h25.4414   l1.6328,16.1777h6.5547l1.1719-1.8906c2.668-4.2949,11.1055-14.2871,31.793-14.2871c19.8633,0,41.2422,15.4883,41.2422,49.4961   V182.502z" fill="#ED5175"/></g></svg>